<svg xmlns="http://www.w3.org/2000/svg" version="1.1" xmlns:xlink="http://www.w3.org/1999/xlink" xmlns:svgjs="http://svgjs.dev/svgjs" width="2000" height="782" viewBox="0 0 2000 782"><g transform="matrix(1,0,0,1,-1.2121212121212466,0.7489855818911337)"><svg viewBox="0 0 396 155" data-background-color="#ffffff" preserveAspectRatio="xMidYMid meet" height="782" width="2000" xmlns="http://www.w3.org/2000/svg" xmlns:xlink="http://www.w3.org/1999/xlink"><g id="tight-bounds" transform="matrix(1,0,0,1,0.2400000000000091,-0.14845622147458926)"><svg viewBox="0 0 395.52 155.29691244294918" height="155.29691244294918" width="395.52"><g><svg viewBox="0 0 600.71999750652 235.86660815002702" height="155.29691244294918" width="395.52"><g><rect width="6.201406785375728" height="136.53638677280867" x="182.7645415447681" y="49.665110688609175" fill="#50a060" opacity="1" stroke-width="0" stroke="transparent" fill-opacity="1" class="rect-qz-0" data-fill-palette-color="primary" rx="1%" id="qz-0" data-palette-color="#50a060"></rect></g><g transform="matrix(1,0,0,1,205.19999750652008,61.04314291967656)"><svg viewBox="0 0 395.52 113.7803223106739" height="113.7803223106739" width="395.52"><g id="textblocktransform"><svg viewBox="0 0 395.52 113.7803223106739" height="113.7803223106739" width="395.52" id="textblock"><g><svg viewBox="0 0 395.52 68.76619892058596" height="68.76619892058596" width="395.52"><g transform="matrix(1,0,0,1,0,0)"><svg width="395.52" viewBox="1.4 -34.6 259.38 45.1" height="68.76619892058596" data-palette-color="#50a060"><path d="M4.8-10.7L4.8-10.7 4.8-16.6Q3.55-16.65 2.8-17.03 2.05-17.4 1.73-18 1.4-18.6 1.4-19.5L1.4-19.5Q1.4-22.35 4.85-22.6L4.85-22.6 4.85-27.25Q4.85-29.15 7.6-30.68 10.35-32.2 13.05-32.2L13.05-32.2Q14.7-32.2 15.2-31.25 15.7-30.3 15.7-28.4L15.7-28.4 15.75-22.65 17.1-22.65Q19.85-22.65 20.88-21.93 21.9-21.2 21.9-19.3L21.9-19.3Q21.9-18.5 21.6-17.95 21.3-17.4 20.63-17.1 19.95-16.8 19-16.68 18.05-16.55 16.65-16.55L16.65-16.55 15.75-16.55 15.75-11.05Q15.75-10.25 15.83-9.73 15.9-9.2 16.05-8.9 16.2-8.6 16.48-8.5 16.75-8.4 17.15-8.4L17.15-8.4Q17.75-8.4 18.15-8.83 18.55-9.25 18.78-9.78 19-10.3 19.38-10.73 19.75-11.15 20.25-11.15L20.25-11.15Q21.4-11.15 22.03-10.6 22.65-10.05 22.65-9.25L22.65-9.25Q22.65-7.9 22.13-6.35 21.6-4.8 20.6-3.35 19.6-1.9 17.82-0.95 16.05 0 13.85 0L13.85 0Q8.9 0 6.85-2.5 4.8-5 4.8-10.7ZM42.5-11.85L42.5-11.85Q42.5-14.45 41.85-16.43 41.2-18.4 39.95-18.4L39.95-18.4Q39.1-18.4 38.45-17.4 37.8-16.4 37.5-14.95 37.2-13.5 37.2-11.85L37.2-11.85Q37.2-9.3 37.9-7.38 38.6-5.45 39.9-5.45 41.2-5.45 41.85-7.35 42.5-9.25 42.5-11.85ZM39.9 0.35L39.9 0.35Q36 0.35 32.87-1.05 29.75-2.45 27.87-5.25 26-8.05 26-11.8L26-11.8Q26-17.5 29.9-20.85 33.8-24.2 39.9-24.2 46-24.2 49.85-20.85 53.7-17.5 53.7-11.8L53.7-11.8Q53.7-6.15 49.77-2.9 45.85 0.35 39.9 0.35ZM68.8-19.7L68.84-10.55Q68.84-7.7 71.05-7.7L71.05-7.7Q71.8-7.7 72.37-8.18 72.94-8.65 73.25-9.5 73.55-10.35 73.55-11.45L73.55-11.45 73.55-18.15Q73.55-19.85 74.14-21.13 74.75-22.4 75.89-23.1 77.05-23.8 78.59-23.8L78.59-23.8Q81.3-23.8 82.8-22.63 84.3-21.45 84.3-18.3L84.3-18.3 84.3-5.3Q84.3-2.25 83.05-1.1 81.8 0.05 78.64 0.05L78.64 0.05Q77.3 0.05 76.34-0.23 75.39-0.5 74.82-1.05 74.25-1.6 73.94-2.5L73.94-2.5Q71.89-1.15 69.62-0.6 67.34-0.05 64.55-0.05L64.55-0.05Q60.99-0.05 59.45-2.83 57.89-5.6 57.89-11.95L57.89-11.95Q57.89-15.1 58.05-17.07 58.2-19.05 58.52-20.48 58.84-21.9 59.52-22.6 60.2-23.3 61.12-23.6 62.05-23.9 63.55-23.9L63.55-23.9Q66.34-23.9 67.57-22.85 68.8-21.8 68.8-19.7L68.8-19.7ZM99.89-15.4L99.89-5.35Q99.89-2.35 98.64-1.18 97.39 0 94.19 0L94.19 0Q91.24 0 90.19-1.38 89.14-2.75 89.14-5.9L89.14-5.9 89.14-18.2Q89.14-19.9 89.74-21.18 90.34-22.45 91.49-23.15 92.64-23.85 94.19-23.85L94.19-23.85Q97.99-23.85 99.19-21.65L99.19-21.65Q102.09-23.85 104.79-23.85L104.79-23.85Q110.04-23.85 110.04-18.85L110.04-18.85Q110.04-16.85 108.89-15.6 107.74-14.35 105.89-14.35L105.89-14.35Q104.79-14.35 104.12-14.8 103.44-15.25 102.87-15.7 102.29-16.15 101.54-16.15L101.54-16.15Q100.44-16.15 99.89-15.4L99.89-15.4ZM135.34 0.3L135.34 0.3Q131.39 0.3 128.79-2.93 126.19-6.15 126.19-11.8L126.19-11.8Q126.19-17.5 128.74-20.85 131.29-24.2 135.29-24.2L135.29-24.2Q139.34-24.2 142.79-21.4L142.79-21.4Q144.09-23.85 147.09-23.85L147.09-23.85Q149.79-23.85 151.31-22.65 152.84-21.45 152.84-18.35L152.84-18.35 152.84-9.2Q152.84-4.35 152.21-0.88 151.59 2.6 150.06 5.25 148.54 7.9 145.86 9.2 143.19 10.5 139.29 10.5L139.29 10.5Q136.59 10.5 134.29 9.75 131.99 9 130.64 7.9 129.29 6.8 128.54 5.7 127.79 4.6 127.79 3.8L127.79 3.8Q127.79 2.85 128.34 2.2 128.89 1.55 129.89 1.55L129.89 1.55Q130.49 1.55 132.91 2.85 135.34 4.15 136.84 4.15L136.84 4.15Q141.94 4.15 141.94-1.1L141.94-1.1Q139.04 0.3 135.34 0.3ZM142.14-7.2L142.14-7.2 142.09-16.65Q141.24-18.05 139.94-18.05L139.94-18.05Q139.04-18.05 138.36-17.1 137.69-16.15 137.36-14.75 137.04-13.35 137.04-11.8L137.04-11.8Q137.04-9.45 137.79-7.68 138.54-5.9 139.89-5.9L139.89-5.9Q141.24-5.9 142.14-7.2ZM168.33-19.7L168.38-10.55Q168.38-7.7 170.58-7.7L170.58-7.7Q171.33-7.7 171.91-8.18 172.48-8.65 172.78-9.5 173.08-10.35 173.08-11.45L173.08-11.45 173.08-18.15Q173.08-19.85 173.69-21.13 174.28-22.4 175.44-23.1 176.58-23.8 178.13-23.8L178.13-23.8Q180.83-23.8 182.33-22.63 183.83-21.45 183.83-18.3L183.83-18.3 183.83-5.3Q183.83-2.25 182.58-1.1 181.33 0.05 178.19 0.05L178.19 0.05Q176.83 0.05 175.88-0.23 174.94-0.5 174.36-1.05 173.78-1.6 173.48-2.5L173.48-2.5Q171.44-1.15 169.16-0.6 166.88-0.05 164.08-0.05L164.08-0.05Q160.53-0.05 158.98-2.83 157.44-5.6 157.44-11.95L157.44-11.95Q157.44-15.1 157.58-17.07 157.73-19.05 158.06-20.48 158.38-21.9 159.06-22.6 159.73-23.3 160.66-23.6 161.58-23.9 163.08-23.9L163.08-23.9Q165.88-23.9 167.11-22.85 168.33-21.8 168.33-19.7L168.33-19.7ZM188.53-30.8L188.53-30.8Q188.53-32.45 189.96-33.52 191.38-34.6 193.98-34.6L193.98-34.6Q199.43-34.6 199.43-30.8L199.43-30.8Q199.43-28.7 198.06-27.85 196.68-27 193.98-27L193.98-27Q191.63-27 190.08-27.9 188.53-28.8 188.53-30.8ZM199.38-18.35L199.38-5.35Q199.38-2.35 198.13-1.18 196.88 0 193.73 0L193.73 0Q190.78 0 189.71-1.38 188.63-2.75 188.63-5.9L188.63-5.9 188.63-18.2Q188.63-20.75 190.01-22.3 191.38-23.85 193.68-23.85L193.68-23.85Q196.38-23.85 197.88-22.68 199.38-21.5 199.38-18.35L199.38-18.35ZM230.58-28.7L230.58-7.5Q230.58-3.45 229.23-1.73 227.88 0 225.08 0L225.08 0Q221.88 0 220.68-2L220.68-2Q217.43 0.35 212.83 0.35L212.83 0.35Q208.93 0.35 206.33-2.88 203.73-6.1 203.73-11.7L203.73-11.7Q203.73-17.4 206.28-20.78 208.83-24.15 212.83-24.15L212.83-24.15Q216.43-24.15 219.58-21.85L219.58-21.85 219.58-28.25Q219.58-31.3 221.08-32.77 222.58-34.25 225.08-34.25L225.08-34.25Q227.83-34.25 229.2-33.15 230.58-32.05 230.58-28.7L230.58-28.7ZM219.68-7.2L219.68-7.2 219.63-16.55Q218.78-17.95 217.43-17.95L217.43-17.95Q216.58-17.95 215.91-17 215.23-16.05 214.88-14.65 214.53-13.25 214.53-11.7L214.53-11.7Q214.53-9.4 215.28-7.6 216.03-5.8 217.38-5.8L217.38-5.8Q217.63-5.8 217.88-5.85 218.13-5.9 218.33-5.98 218.53-6.05 218.73-6.18 218.93-6.3 219.08-6.45 219.23-6.6 219.38-6.8 219.53-7 219.68-7.2ZM248.93 0.3L248.93 0.3Q242.83 0.3 238.85-2.85 234.88-6 234.88-11.45L234.88-11.45Q234.88-17.35 238.8-20.78 242.73-24.2 248.93-24.2L248.93-24.2Q254.78-24.2 257.5-22.13 260.23-20.05 260.23-16.45L260.23-16.45Q260.23-15.75 260.05-15.1 259.88-14.45 259.5-13.83 259.13-13.2 258.5-12.68 257.88-12.15 257.08-11.73 256.28-11.3 255.18-11.08 254.08-10.85 252.83-10.85L252.83-10.85 245.78-10.8Q246.28-9.2 247.58-8.28 248.88-7.35 250.88-7.35L250.88-7.35Q253.03-7.35 255.28-7.9L255.28-7.9Q256.23-8.15 257.35-8.7 258.48-9.25 258.98-9.25L258.98-9.25Q259.83-9.25 260.3-8.75 260.78-8.25 260.78-7.5L260.78-7.5Q260.78-6.6 259.98-5.33 259.18-4.05 257.75-2.78 256.33-1.5 253.98-0.6 251.63 0.3 248.93 0.3ZM245.53-14L245.53-14Q248.98-14.05 249.28-14.05L249.28-14.05Q250.03-14.05 250.38-14.95L250.38-14.95Q250.63-15.6 250.63-16.75L250.63-16.75Q250.63-19.9 248.73-19.9L248.73-19.9Q248.03-19.9 247.35-19.15 246.68-18.4 246.18-17.03 245.68-15.65 245.53-14Z" opacity="1" transform="matrix(1,0,0,1,0,0)" fill="#50a060" class="wordmark-text-0" data-fill-palette-color="primary" id="text-0"></path></svg></g></svg></g><g transform="matrix(1,0,0,1,0,85.00024809696222)"><svg viewBox="0 0 375.74399999999997 28.780074213711675" height="28.780074213711675" width="375.74399999999997"><g transform="matrix(1,0,0,1,0,0)"><svg width="375.74399999999997" viewBox="0.1 -33.9 503.85999999999996 38.6" height="28.780074213711675" data-palette-color="#75db6f"><path d="M6.75-0.15L5.85-0.8 5.8-2.75Q5.75-3.6 5.75-4.65L5.75-4.65 5.8-6.35Q5.65-6.9 5.05-17.3 4.45-27.7 4.35-30.65L4.35-30.65Q1.45-30.75 0.65-31.25L0.65-31.25Q0.1-31.65 0.1-32.15L0.1-32.15Q0.1-32.55 0.63-32.88 1.15-33.2 1.7-33.2L1.7-33.2Q3.1-33.2 5.1-33L5.1-33Q7-32.75 8.5-32.75L8.5-32.75 8.9-32.75 9.3-32.75Q10.85-32.75 10.85-31.55L10.85-31.55Q10.85-30.95 10.35-30.58 9.85-30.2 9.2-30.2L9.2-30.2Q8.75-30.2 7.9-30.35L7.9-30.35 6.9-30.55 6.85-30.3 6.8-30.05Q6.8-25.6 7.65-15.85L7.65-15.85Q8.45-6.7 8.45-1.65L8.45-1.65Q8.45-1.05 7.93-0.6 7.4-0.15 6.75-0.15L6.75-0.15ZM21.7 0.95Q20.4 0.95 19.3 0.13 18.2-0.7 17.5-2.1L17.5-2.1Q16.05-5.15 15.7-8.75L15.7-8.75Q15.25-12.15 15.25-15.3L15.25-15.3Q15.25-15.9 15.3-16.3L15.3-16.3 15.3-17.2Q15.3-17.45 15.25-17.45L15.25-17.45 15.25-18.35 15.3-21.85Q15.35-23.45 15.7-26.95L15.7-26.95Q15.95-29.35 16.85-31.6L16.85-31.6Q17.2-32.6 17.75-33.13 18.3-33.65 19-33.65L19-33.65Q21-33.65 22.6-32.93 24.2-32.2 25.3-30.9L25.3-30.9Q26.3-29.65 27-27.83 27.7-26 28-23.95L28-23.95Q28.3-21.85 28.3-19.5L28.3-19.5 28.3-19.1Q28.3-17.55 28.35-16.3L28.35-16.3 28.4-13.45Q28.4 0.95 21.7 0.95L21.7 0.95ZM21.5-1.15Q22.4-1.15 23.15-1.88 23.9-2.6 24.3-3.85L24.3-3.85Q25.25-6.4 25.45-9.35L25.45-9.35Q25.7-11.9 25.7-13.75L25.7-13.75Q25.7-16 25.35-19.65L25.35-19.65Q25.05-23.5 25.05-25.4L25.05-25.4 25.05-26.3Q24.95-28.2 23.77-29.6 22.6-31 20.9-31L20.9-31Q19.2-31 18.65-29.05L18.65-29.05Q18.15-27.5 18.15-25.05L18.15-25.05Q18.15-24.1 18.2-23.45L18.2-23.45 18.2-22.1 18.1-19.8Q18-18.75 18-17.5L18-17.5Q18-14.8 18.15-12.15L18.15-12.15Q18.35-8.4 19.15-4.85L19.15-4.85Q19.95-1.15 21.5-1.15L21.5-1.15ZM39.2 0.75Q37.99 0.75 37.05 0.23 36.09-0.3 35.49-1.3L35.49-1.3Q34.3-3.4 33.95-6.05L33.95-6.05Q33.59-8.35 33.59-11.55L33.59-11.55Q33.45-16.95 33.45-24.75L33.45-24.75 33.39-28.6Q33.34-28.9 33.34-29.6L33.34-29.6Q33.24-31.5 33.24-31.9L33.24-31.9Q33.7-32.95 34.3-32.95L34.3-32.95Q34.89-32.95 35.37-32.05 35.84-31.15 35.84-30.1L35.84-30.1 35.84-16.5Q35.84-14.5 36.2-11.2L36.2-11.2Q36.55-7.1 36.55-5.9L36.55-5.9Q36.55-2.2 39.7-2.2L39.7-2.2Q43.3-2.2 43.3-29.1L43.3-29.1 43.3-31.9 43.3-32.35Q43.24-32.5 43.24-32.75L43.24-32.75Q43.24-33.35 43.52-33.63 43.8-33.9 44.59-33.9L44.59-33.9Q45.24-33.9 45.62-33.52 45.99-33.15 46.09-32.65L46.09-32.65Q46.14-32.35 46.14-31.5L46.14-31.5Q46.14-30.7 45.99-28.95L45.99-28.95Q45.8-27.5 45.8-26.45L45.8-26.45Q45.8-25.3 45.7-24.4L45.7-24.4 45.59-22.3 45.59-21.9Q45.64-21.7 45.64-21.45L45.64-21.45Q45.64 0.75 39.2 0.75L39.2 0.75ZM60.64 0.85Q59.54 0.85 58.64-1.55L58.64-1.55Q57.59-4.15 57.09-6.9L57.09-6.9 56.74-8.6Q55.29-15.75 54.89-16.75L54.89-16.75 54.29-16.75Q54.29-15.3 54.24-14.1L54.24-14.1 54.24-11.35Q54.24-4.65 55.19-0.9L55.19-0.9 54.64 0.45 53.24 0.45 52.59-0.3 52.64-3.65Q52.64-8.15 52.19-17.3L52.19-17.3Q51.79-27.05 51.79-30.95L51.79-30.95Q51.79-33.35 53.44-33.35L53.44-33.35Q56.14-33.35 57.87-31.95 59.59-30.55 59.59-28.05L59.59-28.05 59.59-24.55Q59.59-23.8 59.34-22.83 59.09-21.85 58.79-21.25L58.79-21.25 57.84-19.45 57.04-17.95 57.29-16.75 57.99-13.2Q58.69-9.35 59.34-6.95 59.99-4.55 60.94-2.6L60.94-2.6 61.24-2Q61.74-1 61.74-0.4L61.74-0.4Q61.74 0.1 61.44 0.48 61.14 0.85 60.64 0.85L60.64 0.85ZM54.49-19.2Q55.59-19.75 56.37-22.23 57.14-24.7 57.14-26.8L57.14-26.8Q57.14-28.4 56.74-29.8L56.74-29.8Q56.49-30.6 55.92-31.03 55.34-31.45 54.49-31.45L54.49-31.45 54.39-31.2 54.29-30.75 54.39-24.85Q54.49-22.25 54.49-19.2L54.49-19.2ZM69.14-0.05Q64.79-0.05 64.79-1.55L64.79-1.55Q64.79-2.75 66.34-2.75L66.34-2.75 66.89-2.75 67.39-2.7Q67.79-2.7 67.94-2.95 68.09-3.2 68.09-3.85L68.09-3.85Q68.09-4.7 67.99-6.5L67.99-6.5Q67.84-7.7 67.64-10.8L67.64-10.8Q67.19-18.45 67.19-22.35L67.19-22.35Q67.19-23.75 67.24-24.9L67.24-24.9 67.29-27.45Q67.29-29.1 67.14-30.2L67.14-30.2Q66.34-30 65.99-30L65.99-30Q64.79-30 64.79-31.2L64.79-31.2Q64.79-31.8 65.54-32.25 66.29-32.7 67.44-32.9L67.44-32.9Q69.44-33.3 70.99-33.3L70.99-33.3Q71.59-33.3 72.02-32.88 72.44-32.45 72.44-31.9L72.44-31.9Q72.44-31.35 72.12-30.95 71.79-30.55 71.29-30.55L71.29-30.55Q70.99-30.55 70.79-30.6L70.79-30.6 70.39-30.6Q69.89-30.6 69.67-30.38 69.44-30.15 69.44-29.55L69.44-29.55Q69.44-24.7 70.04-14.95L70.04-14.95Q70.14-13.15 70.44-9.65L70.44-9.65Q70.69-7.35 70.69-4.95L70.69-4.95 70.69-3.05Q70.99-3.1 71.69-3.1L71.69-3.1Q73.79-3.1 73.79-1.35L73.79-1.35 73.79-1.05 72.54-0.2Q72.49-0.2 72.22-0.18 71.94-0.15 71.19-0.15L71.19-0.15Q69.59-0.05 69.14-0.05L69.14-0.05ZM78.84 0.7Q77.94 0.55 77.31 0.05 76.69-0.45 76.59-1.25L76.59-1.25 77.14-2.1Q77.44-2.1 78.09-1.9L78.09-1.9Q78.84-1.75 79.24-1.75L79.24-1.75Q80.14-1.75 80.86-2.55 81.59-3.35 81.94-4.65L81.94-4.65Q82.59-7.05 82.59-8.95L82.59-8.95Q82.59-12.25 80.49-15.9L80.49-15.9 79.94-16.85Q78.99-18.5 78.34-19.8 77.69-21.1 77.24-22.6L77.24-22.6Q76.64-24.55 76.64-26.5L76.64-26.5Q76.64-28.7 77.64-31.1L77.64-31.1Q78.14-32.25 79.06-32.98 79.99-33.7 81.14-33.7L81.14-33.7Q82.04-33.7 82.81-33.13 83.59-32.55 83.59-31.75L83.59-31.75Q83.59-31.3 83.24-31.05 82.89-30.8 82.39-30.8L82.39-30.8Q81.84-30.8 81.34-31.1L81.34-31.1Q80.24-31.05 79.59-29.15L79.59-29.15Q79.04-27.4 79.04-26.25L79.04-26.25Q79.04-24.8 79.49-23.33 79.94-21.85 80.64-20.65L80.64-20.65 81.74-18.65 83.49-15.35Q84.19-13.95 84.61-12.1 85.04-10.25 85.04-8.35L85.04-8.35Q85.04-5.3 83.64-2.55L83.64-2.55Q82.94-1.15 81.66-0.3 80.39 0.55 78.84 0.55L78.84 0.55 78.84 0.7ZM110.44 2.6Q108.89 2.6 108.89-0.5L108.89-0.5 108.89-3.7 108.89-6.9Q108.89-9.4 108.54-13.45L108.54-13.45Q108.14-18 108.14-19.7L108.14-19.7 108.24-22.8Q108.34-24.15 108.34-25.85L108.34-25.85Q108.14-25.2 106.69-18.95L106.69-18.95Q105.24-12.9 103.69-7.75L103.69-7.75Q102.19-2.8 101.24-2.8L101.24-2.8Q100.29-2.8 99.71-3.38 99.14-3.95 99.14-4.95L99.14-4.95Q99.14-7.15 97.36-14.3 95.59-21.45 94.14-26L94.14-26 93.84-20.35Q93.44-13.2 93.29-8.45L93.29-8.45Q93.19-3.85 93.19-2.15L93.19-2.15Q93.19-1.75 93.24-1.4L93.24-1.4 93.24-0.7Q93.24 0.15 92.89 0.58 92.54 1 91.59 1L91.59 1Q91.09 1 90.64 0.63 90.19 0.25 90.19-0.2L90.19-0.2Q90.19-5.3 90.94-15.5L90.94-15.5Q91.69-25.7 91.69-30.8L91.69-30.8Q91.39-31.25 91.39-31.75L91.39-31.75Q91.39-32.35 91.96-32.68 92.54-33 93.34-33L93.34-33Q93.99-33 95.74-28.3 97.49-23.6 99.24-17.65 100.99-11.7 101.49-9.05L101.49-9.05Q101.89-10.4 102.14-11.55L102.14-11.55 102.44-12.75Q104.04-19.75 105.64-25.4L105.64-25.4Q106.59-28.85 107.49-30.8L107.49-30.8Q108.39-32.9 109.14-32.9L109.14-32.9Q109.84-32.9 110.41-32.52 110.99-32.15 110.99-31.55L110.99-31.55Q110.99-27.95 111.29-20.75L111.29-20.75Q111.64-14.05 111.64-10.35L111.64-10.35 111.59-7.7 111.49-5.05Q111.49-4.45 111.64-3.25L111.64-3.25 111.79-1.5Q111.84-1.05 111.86-0.8 111.89-0.55 111.89-0.5L111.89-0.5Q112.14 0.15 112.14 0.45L112.14 0.45Q112.14 1.3 111.64 1.95 111.14 2.6 110.44 2.6L110.44 2.6ZM119.23 4.7L119.08 4.7Q118.58 4.7 118.48 4.25L118.48 4.25 118.48 3.95 119.68 2.45Q120.33 1.55 120.53 0.8L120.53 0.8Q120.58 0.65 120.58 0.35L120.58 0.35Q120.58 0.05 120.53-0.1L120.53-0.1Q119.73-0.1 119.31-0.58 118.88-1.05 118.73-2.05L118.73-2.05Q118.58-2.95 119.26-3.43 119.93-3.9 120.98-3.9L120.98-3.9Q122.53-3.9 122.83-2.25L122.83-2.25Q123.03-1 122.13 1.05 121.23 3.1 119.83 4.4L119.83 4.4Q119.53 4.65 119.23 4.7L119.23 4.7ZM138.88 0.5Q137.78 0.5 137.53-0.45L137.53-0.45Q137.33-1.05 137.33-2.15L137.33-2.15Q137.33-4.3 137.53-7.45L137.53-7.45Q137.78-10.45 137.78-12.8L137.78-12.8Q137.78-15.45 137.93-20.75L137.93-20.75 138.03-28.65Q138.03-29.1 137.88-30L137.88-30 137.73-31.25 137.73-31.5Q137.73-32.65 138.08-33.2 138.43-33.75 139.38-33.75L139.38-33.75Q140.68-33.75 142.23-33 143.78-32.25 144.48-31.1L144.48-31.1Q145.93-28.7 145.93-25.1L145.93-25.1Q145.93-22.4 145.48-20.58 145.03-18.75 143.93-17.2L143.93-17.2Q145.28-15.9 145.75-13.88 146.23-11.85 146.23-8.8L146.23-8.8Q146.23-5.75 145.18-3.5L145.18-3.5Q143.98-0.95 141.68 0L141.68 0Q140.28 0.5 138.88 0.5L138.88 0.5ZM140.48-18.65Q143.08-18.7 143.08-24.7L143.08-24.7Q143.08-31.15 141.03-31.45L141.03-31.45Q140.48-30.3 140.48-26.05L140.48-26.05 140.48-18.65ZM140.18-2.05Q141.78-2.4 142.68-3.95 143.58-5.5 143.58-7.5L143.58-7.5Q143.58-9.6 143.33-11.2L143.33-11.2Q143.13-12.45 142.8-13.28 142.48-14.1 141.93-14.8L141.93-14.8Q141.33-15.55 140.53-15.7L140.53-15.7Q140.33-12.85 140.33-8.15L140.33-8.15Q140.33-7.85 140.23-6.25L140.23-6.25 140.13-4.55Q140.13-4.45 140.18-4.4L140.18-4.4 140.18-4.3 140.18-2.05ZM153.98 0.65Q153.33 0.65 152.8 0.2 152.28-0.25 152.23-0.9L152.23-0.9 152.23-2.2 152.23-3.2Q152.18-3.65 152.18-4.25L152.18-4.25Q152.18-5.3 152.03-7.45L152.03-7.45 151.93-10.65Q151.93-13.1 152.08-17.95L152.08-17.95Q152.28-22.3 152.28-25.25L152.28-25.25Q152.28-25.95 152.13-27.35L152.13-27.35Q151.98-28.8 151.98-29.45L151.98-29.45Q151.98-33 154.08-33L154.08-33Q155.73-33 157.9-32.35 160.08-31.7 160.08-30.8L160.08-30.8Q160.08-30.3 159.65-29.88 159.23-29.45 158.63-29.2L158.63-29.2Q156.53-29.95 154.83-30.2L154.83-30.2Q154.88-29.45 154.88-28.05L154.88-28.05Q154.88-26.05 154.83-24.45L154.83-24.45Q154.68-22.05 154.68-20.85L154.68-20.85 154.83-20.05 155.63-20.1Q156.03-20.15 156.63-20.15L156.63-20.15Q159.03-20.15 159.03-18.75L159.03-18.75Q159.03-18.2 158.58-17.82 158.13-17.45 157.43-17.45L157.43-17.45Q156.53-17.45 156.03-17.55L156.03-17.55 154.78-17.55Q154.88-16.25 154.88-13.75L154.88-13.75Q154.88-11.25 154.83-9.25L154.83-9.25Q154.68-6.2 154.68-4.7L154.68-4.7Q154.68-1.9 154.78-1.9L154.78-1.9 156.43-1.95Q157.28-2 158.48-2L158.48-2Q160.38-2 160.38-0.8L160.38-0.8Q160.38-0.1 159.75 0.28 159.13 0.65 158.23 0.65L158.23 0.65 153.98 0.65ZM175.72 0.45Q174.57 0.45 174.02 0.1 173.47-0.25 173.47-1.2L173.47-1.2Q173.47-2.7 172.97-6.3L172.97-6.3 172.77-7.35 167.82-8.1Q167.52-6.95 166.97-3.45L166.97-3.45Q166.67-1 166.02-0.2L166.02-0.2Q165.67 0.25 165.02 0.25L165.02 0.25Q164.42 0.25 163.92-0.13 163.42-0.5 163.42-1.05L163.42-1.05 163.52-1.3 163.57-1.5Q166.87-14.35 168.57-26.85L168.57-26.85Q168.57-27.05 168.62-27.53 168.67-28 168.72-28.9L168.72-28.9Q168.87-30.75 169.05-31.85 169.22-32.95 169.62-33.5L169.62-33.5 171.32-33.5Q172.02-33.5 172.52-33.18 173.02-32.85 173.02-32.25L173.02-32.25Q173.02-28.45 174.07-20.95L174.07-20.95Q175.07-13.25 175.07-10.15L175.07-10.15Q175.07-9.85 175.32-8.6L175.32-8.6Q175.57-7.45 175.57-7.1L175.57-7.1Q175.57-6.75 176.07-4.1L176.07-4.1Q176.52-1.7 176.52-1L176.52-1 176.52-0.95Q176.52 0.15 175.72 0.45L175.72 0.45ZM172.42-9.15Q172.27-9.9 172.27-11L172.27-11Q172.27-15.5 171.47-22.5L171.47-22.5 170.97-27.7Q168.82-15.95 168.02-9.95L168.02-9.95Q168.77-9.45 172.42-9.15L172.42-9.15ZM187.52 0.7Q186.42 0.7 185.2 0.38 183.97 0.05 183.32-0.35L183.32-0.35Q179.97-2.5 179.97-12.1L179.97-12.1 179.97-13.45 179.97-15 179.97-16.2Q179.97-18.2 180.02-19.78 180.07-21.35 180.22-23.2L180.22-23.2Q180.37-25.15 180.67-26.38 180.97-27.6 181.67-29.15L181.67-29.15Q182.27-30.6 183.15-31.4 184.02-32.2 185.42-32.75L185.42-32.75Q186.67-33.3 188.52-33.3L188.52-33.3Q189.27-33.3 189.67-32.95 190.07-32.6 190.07-32.05L190.07-32.05Q190.07-31.55 189.75-31.15 189.42-30.75 188.97-30.7L188.97-30.7 186.62-30.7Q185.62-30.7 184.87-29.45 184.12-28.2 183.82-26.2L183.82-26.2Q183.17-22.5 183.17-20.2L183.17-20.2 183.17-19.95 183.07-15.15Q182.97-13 182.97-10.3L182.97-10.3Q182.97-8.4 183.12-7.2L183.12-7.2Q183.37-5.4 183.97-4.2L183.97-4.2Q184.57-2.85 186.02-2.25L186.02-2.25Q186.77-1.95 187.67-1.95L187.67-1.95Q188.22-1.95 188.77-2.35L188.77-2.35Q189.42-2.35 189.84-2.08 190.27-1.8 190.27-1.25L190.27-1.25Q190.27 0.7 187.52 0.7L187.52 0.7ZM203.57 0Q201.87 0 201.87-8.25L201.87-8.25 201.92-11.1 201.97-13.4 201.97-13.55 201.97-14.05Q202.02-14.45 202.02-15L202.02-15Q202.02-15.1 201.87-15.25L201.87-15.25Q201.72-15.4 201.72-15.5L201.72-15.5 201.72-15.55Q201.47-15.45 200.82-15.45L200.82-15.45Q200.17-15.45 199.22-15.65L199.22-15.65Q198.92-15.7 197.62-15.9L197.62-15.9 197.62-10.15Q197.62-8.85 197.77-6.05L197.77-6.05Q197.92-3.3 197.92-1.95L197.92-1.95Q197.92-1.2 197.52-0.65 197.12-0.1 196.47-0.1L196.47-0.1Q195.52-0.1 195.12-1.95L195.12-1.95Q194.72-3.85 194.72-6.9L194.72-6.9 194.82-10.95Q194.87-12.65 194.87-14.55L194.87-14.55 194.87-15.4 194.87-16.1Q194.87-16.9 194.82-17.15L194.82-17.15 194.82-17.4 194.97-20.3Q194.97-22.2 194.82-25.95L194.82-25.95Q194.67-29.7 194.67-31.6L194.67-31.6Q194.67-32.2 195.07-32.65 195.47-33.1 196.07-33.1L196.07-33.1Q197.67-33.1 197.67-30.1L197.67-30.1 197.57-23.9Q197.47-21.1 197.47-17.65L197.47-17.65Q198.22-17.4 200.17-17.4L200.17-17.4 202.02-17.4Q202.12-17.7 202.12-18L202.12-18Q202.12-20.4 201.82-25.1L201.82-25.1Q201.47-29.5 201.47-32.25L201.47-32.25Q201.47-32.8 201.89-33.18 202.32-33.55 202.92-33.55L202.92-33.55Q203.27-33.55 203.92-33.3L203.92-33.3 204.37-33.1Q204.37-26 204.87-14.15L204.87-14.15 205.32-1.5Q205.32-0.8 204.79-0.4 204.27 0 203.57 0L203.57 0ZM212.22 4.7L212.07 4.7Q211.57 4.7 211.47 4.25L211.47 4.25 211.47 3.95 212.67 2.45Q213.32 1.55 213.52 0.8L213.52 0.8Q213.57 0.65 213.57 0.35L213.57 0.35Q213.57 0.05 213.52-0.1L213.52-0.1Q212.72-0.1 212.29-0.58 211.87-1.05 211.72-2.05L211.72-2.05Q211.57-2.95 212.24-3.43 212.92-3.9 213.97-3.9L213.97-3.9Q215.52-3.9 215.82-2.25L215.82-2.25Q216.02-1 215.12 1.05 214.22 3.1 212.82 4.4L212.82 4.4Q212.52 4.65 212.22 4.7L212.22 4.7ZM239.16 0.85Q238.06 0.85 237.16-1.55L237.16-1.55Q236.11-4.15 235.61-6.9L235.61-6.9 235.26-8.6Q233.81-15.75 233.41-16.75L233.41-16.75 232.81-16.75Q232.81-15.3 232.76-14.1L232.76-14.1 232.76-11.35Q232.76-4.65 233.71-0.9L233.71-0.9 233.16 0.45 231.76 0.45 231.11-0.3 231.16-3.65Q231.16-8.15 230.71-17.3L230.71-17.3Q230.31-27.05 230.31-30.95L230.31-30.95Q230.31-33.35 231.96-33.35L231.96-33.35Q234.66-33.35 236.39-31.95 238.11-30.55 238.11-28.05L238.11-28.05 238.11-24.55Q238.11-23.8 237.86-22.83 237.61-21.85 237.31-21.25L237.31-21.25 236.36-19.45 235.56-17.95 235.81-16.75 236.51-13.2Q237.21-9.35 237.86-6.95 238.51-4.55 239.46-2.6L239.46-2.6 239.76-2Q240.26-1 240.26-0.4L240.26-0.4Q240.26 0.1 239.96 0.48 239.66 0.85 239.16 0.85L239.16 0.85ZM233.01-19.2Q234.11-19.75 234.89-22.23 235.66-24.7 235.66-26.8L235.66-26.8Q235.66-28.4 235.26-29.8L235.26-29.8Q235.01-30.6 234.44-31.03 233.86-31.45 233.01-31.45L233.01-31.45 232.91-31.2 232.81-30.75 232.91-24.85Q233.01-22.25 233.01-19.2L233.01-19.2ZM247.46 0.65Q246.81 0.65 246.28 0.2 245.76-0.25 245.71-0.9L245.71-0.9 245.71-2.2 245.71-3.2Q245.66-3.65 245.66-4.25L245.66-4.25Q245.66-5.3 245.51-7.45L245.51-7.45 245.41-10.65Q245.41-13.1 245.56-17.95L245.56-17.95Q245.76-22.3 245.76-25.25L245.76-25.25Q245.76-25.95 245.61-27.35L245.61-27.35Q245.46-28.8 245.46-29.45L245.46-29.45Q245.46-33 247.56-33L247.56-33Q249.21-33 251.38-32.35 253.56-31.7 253.56-30.8L253.56-30.8Q253.56-30.3 253.13-29.88 252.71-29.45 252.11-29.2L252.11-29.2Q250.01-29.95 248.31-30.2L248.31-30.2Q248.36-29.45 248.36-28.05L248.36-28.05Q248.36-26.05 248.31-24.45L248.31-24.45Q248.16-22.05 248.16-20.85L248.16-20.85 248.31-20.05 249.11-20.1Q249.51-20.15 250.11-20.15L250.11-20.15Q252.51-20.15 252.51-18.75L252.51-18.75Q252.51-18.2 252.06-17.82 251.61-17.45 250.91-17.45L250.91-17.45Q250.01-17.45 249.51-17.55L249.51-17.55 248.26-17.55Q248.36-16.25 248.36-13.75L248.36-13.75Q248.36-11.25 248.31-9.25L248.31-9.25Q248.16-6.2 248.16-4.7L248.16-4.7Q248.16-1.9 248.26-1.9L248.26-1.9 249.91-1.95Q250.76-2 251.96-2L251.96-2Q253.86-2 253.86-0.8L253.86-0.8Q253.86-0.1 253.23 0.28 252.61 0.65 251.71 0.65L251.71 0.65 247.46 0.65ZM260.25 0.7Q259.36 0.55 258.73 0.05 258.11-0.45 258-1.25L258-1.25 258.56-2.1Q258.86-2.1 259.5-1.9L259.5-1.9Q260.25-1.75 260.66-1.75L260.66-1.75Q261.56-1.75 262.28-2.55 263-3.35 263.36-4.65L263.36-4.65Q264-7.05 264-8.95L264-8.95Q264-12.25 261.91-15.9L261.91-15.9 261.36-16.85Q260.41-18.5 259.75-19.8 259.11-21.1 258.66-22.6L258.66-22.6Q258.06-24.55 258.06-26.5L258.06-26.5Q258.06-28.7 259.06-31.1L259.06-31.1Q259.56-32.25 260.48-32.98 261.41-33.7 262.56-33.7L262.56-33.7Q263.45-33.7 264.23-33.13 265-32.55 265-31.75L265-31.75Q265-31.3 264.66-31.05 264.31-30.8 263.81-30.8L263.81-30.8Q263.25-30.8 262.75-31.1L262.75-31.1Q261.66-31.05 261-29.15L261-29.15Q260.45-27.4 260.45-26.25L260.45-26.25Q260.45-24.8 260.91-23.33 261.36-21.85 262.06-20.65L262.06-20.65 263.16-18.65 264.91-15.35Q265.61-13.95 266.03-12.1 266.45-10.25 266.45-8.35L266.45-8.35Q266.45-5.3 265.06-2.55L265.06-2.55Q264.36-1.15 263.08-0.3 261.81 0.55 260.25 0.55L260.25 0.55 260.25 0.7ZM275.4-0.15L274.5-0.8 274.45-2.75Q274.4-3.6 274.4-4.65L274.4-4.65 274.45-6.35Q274.3-6.9 273.7-17.3 273.1-27.7 273-30.65L273-30.65Q270.1-30.75 269.3-31.25L269.3-31.25Q268.75-31.65 268.75-32.15L268.75-32.15Q268.75-32.55 269.28-32.88 269.8-33.2 270.35-33.2L270.35-33.2Q271.75-33.2 273.75-33L273.75-33Q275.65-32.75 277.15-32.75L277.15-32.75 277.55-32.75 277.95-32.75Q279.5-32.75 279.5-31.55L279.5-31.55Q279.5-30.95 279-30.58 278.5-30.2 277.85-30.2L277.85-30.2Q277.4-30.2 276.55-30.35L276.55-30.35 275.55-30.55 275.5-30.3 275.45-30.05Q275.45-25.6 276.3-15.85L276.3-15.85Q277.1-6.7 277.1-1.65L277.1-1.65Q277.1-1.05 276.58-0.6 276.05-0.15 275.4-0.15L275.4-0.15ZM294.35 0.45Q293.2 0.45 292.65 0.1 292.1-0.25 292.1-1.2L292.1-1.2Q292.1-2.7 291.6-6.3L291.6-6.3 291.4-7.35 286.45-8.1Q286.15-6.95 285.6-3.45L285.6-3.45Q285.3-1 284.65-0.2L284.65-0.2Q284.3 0.25 283.65 0.25L283.65 0.25Q283.05 0.25 282.55-0.13 282.05-0.5 282.05-1.05L282.05-1.05 282.15-1.3 282.2-1.5Q285.5-14.35 287.2-26.85L287.2-26.85Q287.2-27.05 287.25-27.53 287.3-28 287.35-28.9L287.35-28.9Q287.5-30.75 287.68-31.85 287.85-32.95 288.25-33.5L288.25-33.5 289.95-33.5Q290.65-33.5 291.15-33.18 291.65-32.85 291.65-32.25L291.65-32.25Q291.65-28.45 292.7-20.95L292.7-20.95Q293.7-13.25 293.7-10.15L293.7-10.15Q293.7-9.85 293.95-8.6L293.95-8.6Q294.2-7.45 294.2-7.1L294.2-7.1Q294.2-6.75 294.7-4.1L294.7-4.1Q295.15-1.7 295.15-1L295.15-1 295.15-0.95Q295.15 0.15 294.35 0.45L294.35 0.45ZM291.05-9.15Q290.9-9.9 290.9-11L290.9-11Q290.9-15.5 290.1-22.5L290.1-22.5 289.6-27.7Q287.45-15.95 286.65-9.95L286.65-9.95Q287.4-9.45 291.05-9.15L291.05-9.15ZM304.8 0.75Q303.6 0.75 302.65 0.23 301.7-0.3 301.1-1.3L301.1-1.3Q299.9-3.4 299.55-6.05L299.55-6.05Q299.2-8.35 299.2-11.55L299.2-11.55Q299.05-16.95 299.05-24.75L299.05-24.75 299-28.6Q298.95-28.9 298.95-29.6L298.95-29.6Q298.85-31.5 298.85-31.9L298.85-31.9Q299.3-32.95 299.9-32.95L299.9-32.95Q300.5-32.95 300.97-32.05 301.45-31.15 301.45-30.1L301.45-30.1 301.45-16.5Q301.45-14.5 301.8-11.2L301.8-11.2Q302.15-7.1 302.15-5.9L302.15-5.9Q302.15-2.2 305.3-2.2L305.3-2.2Q308.9-2.2 308.9-29.1L308.9-29.1 308.9-31.9 308.9-32.35Q308.85-32.5 308.85-32.75L308.85-32.75Q308.85-33.35 309.12-33.63 309.4-33.9 310.2-33.9L310.2-33.9Q310.85-33.9 311.22-33.52 311.6-33.15 311.7-32.65L311.7-32.65Q311.75-32.35 311.75-31.5L311.75-31.5Q311.75-30.7 311.6-28.95L311.6-28.95Q311.4-27.5 311.4-26.45L311.4-26.45Q311.4-25.3 311.3-24.4L311.3-24.4 311.2-22.3 311.2-21.9Q311.25-21.7 311.25-21.45L311.25-21.45Q311.25 0.75 304.8 0.75L304.8 0.75ZM326.25 0.85Q325.15 0.85 324.25-1.55L324.25-1.55Q323.2-4.15 322.7-6.9L322.7-6.9 322.35-8.6Q320.9-15.75 320.5-16.75L320.5-16.75 319.9-16.75Q319.9-15.3 319.85-14.1L319.85-14.1 319.85-11.35Q319.85-4.65 320.8-0.9L320.8-0.9 320.25 0.45 318.85 0.45 318.2-0.3 318.25-3.65Q318.25-8.15 317.8-17.3L317.8-17.3Q317.4-27.05 317.4-30.95L317.4-30.95Q317.4-33.35 319.05-33.35L319.05-33.35Q321.75-33.35 323.47-31.95 325.2-30.55 325.2-28.05L325.2-28.05 325.2-24.55Q325.2-23.8 324.95-22.83 324.7-21.85 324.4-21.25L324.4-21.25 323.45-19.45 322.65-17.95 322.9-16.75 323.6-13.2Q324.3-9.35 324.95-6.95 325.6-4.55 326.55-2.6L326.55-2.6 326.85-2Q327.35-1 327.35-0.4L327.35-0.4Q327.35 0.1 327.05 0.48 326.75 0.85 326.25 0.85L326.25 0.85ZM320.1-19.2Q321.2-19.75 321.97-22.23 322.75-24.7 322.75-26.8L322.75-26.8Q322.75-28.4 322.35-29.8L322.35-29.8Q322.1-30.6 321.52-31.03 320.95-31.45 320.1-31.45L320.1-31.45 320-31.2 319.9-30.75 320-24.85Q320.1-22.25 320.1-19.2L320.1-19.2ZM342.09 0.45Q340.94 0.45 340.39 0.1 339.84-0.25 339.84-1.2L339.84-1.2Q339.84-2.7 339.34-6.3L339.34-6.3 339.14-7.35 334.19-8.1Q333.89-6.95 333.34-3.45L333.34-3.45Q333.04-1 332.39-0.2L332.39-0.2Q332.04 0.25 331.39 0.25L331.39 0.25Q330.79 0.25 330.29-0.13 329.79-0.5 329.79-1.05L329.79-1.05 329.89-1.3 329.94-1.5Q333.24-14.35 334.94-26.85L334.94-26.85Q334.94-27.05 334.99-27.53 335.04-28 335.09-28.9L335.09-28.9Q335.24-30.75 335.42-31.85 335.59-32.95 335.99-33.5L335.99-33.5 337.69-33.5Q338.39-33.5 338.89-33.18 339.39-32.85 339.39-32.25L339.39-32.25Q339.39-28.45 340.44-20.95L340.44-20.95Q341.44-13.25 341.44-10.15L341.44-10.15Q341.44-9.85 341.69-8.6L341.69-8.6Q341.94-7.45 341.94-7.1L341.94-7.1Q341.94-6.75 342.44-4.1L342.44-4.1Q342.89-1.7 342.89-1L342.89-1 342.89-0.95Q342.89 0.15 342.09 0.45L342.09 0.45ZM338.79-9.15Q338.64-9.9 338.64-11L338.64-11Q338.64-15.5 337.84-22.5L337.84-22.5 337.34-27.7Q335.19-15.95 334.39-9.95L334.39-9.95Q335.14-9.45 338.79-9.15L338.79-9.15ZM360.84 0.15Q360.24 0.15 359.94-0.18 359.64-0.5 359.49-1.3L359.49-1.3 359.19-2.25 359.19-2.35 359.19-2.5Q359.19-4.15 355.77-13.75 352.34-23.35 350.39-27.95L350.39-27.95 350.39-2.8 350.59-2.45Q350.64-2.35 350.79-2.1 350.94-1.85 350.94-1.6L350.94-1.6Q350.94-0.95 350.49-0.5 350.04-0.05 349.39-0.05L349.39-0.05Q347.79-0.05 347.79-3.1L347.79-3.1 347.74-11.65Q347.69-15.5 347.69-20.25L347.69-20.25Q347.69-21.85 347.84-24.9L347.84-24.9Q347.99-28.05 347.99-29.55L347.99-29.55Q347.99-31.9 349.79-33.25L349.79-33.25 349.79-32.95Q350.09-33.05 350.19-33.05L350.19-33.05Q351.34-33.05 353.09-29.05L353.09-29.05Q354.49-25.85 355.62-22.3 356.74-18.75 358.59-12.2L358.59-12.2 359.09-10.4Q360.24-6.35 360.84-4.6L360.84-4.6Q361.84-15.35 361.84-30L361.84-30 361.84-30.65Q361.79-30.95 361.79-31.3L361.79-31.3Q361.79-32.8 362.99-32.8L362.99-32.8Q363.69-32.8 364.07-32.25 364.44-31.7 364.44-30.85L364.44-30.85 364.44-27.1Q364.34-19.4 363.84-10.4 363.34-1.4 362.64-0.25L362.64-0.25Q361.19 0.15 360.84 0.15L360.84 0.15ZM374.84-0.15L373.94-0.8 373.89-2.75Q373.84-3.6 373.84-4.65L373.84-4.65 373.89-6.35Q373.74-6.9 373.14-17.3 372.54-27.7 372.44-30.65L372.44-30.65Q369.54-30.75 368.74-31.25L368.74-31.25Q368.19-31.65 368.19-32.15L368.19-32.15Q368.19-32.55 368.71-32.88 369.24-33.2 369.79-33.2L369.79-33.2Q371.19-33.2 373.19-33L373.19-33Q375.09-32.75 376.59-32.75L376.59-32.75 376.99-32.75 377.39-32.75Q378.94-32.75 378.94-31.55L378.94-31.55Q378.94-30.95 378.44-30.58 377.94-30.2 377.29-30.2L377.29-30.2Q376.84-30.2 375.99-30.35L375.99-30.35 374.99-30.55 374.94-30.3 374.89-30.05Q374.89-25.6 375.74-15.85L375.74-15.85Q376.54-6.7 376.54-1.65L376.54-1.65Q376.54-1.05 376.01-0.6 375.49-0.15 374.84-0.15L374.84-0.15ZM384.84 0.7Q383.94 0.55 383.31 0.05 382.69-0.45 382.59-1.25L382.59-1.25 383.14-2.1Q383.44-2.1 384.09-1.9L384.09-1.9Q384.84-1.75 385.24-1.75L385.24-1.75Q386.14-1.75 386.86-2.55 387.59-3.35 387.94-4.65L387.94-4.65Q388.59-7.05 388.59-8.95L388.59-8.95Q388.59-12.25 386.49-15.9L386.49-15.9 385.94-16.85Q384.99-18.5 384.34-19.8 383.69-21.1 383.24-22.6L383.24-22.6Q382.64-24.55 382.64-26.5L382.64-26.5Q382.64-28.7 383.64-31.1L383.64-31.1Q384.14-32.25 385.06-32.98 385.99-33.7 387.14-33.7L387.14-33.7Q388.04-33.7 388.81-33.13 389.59-32.55 389.59-31.75L389.59-31.75Q389.59-31.3 389.24-31.05 388.89-30.8 388.39-30.8L388.39-30.8Q387.84-30.8 387.34-31.1L387.34-31.1Q386.24-31.05 385.59-29.15L385.59-29.15Q385.04-27.4 385.04-26.25L385.04-26.25Q385.04-24.8 385.49-23.33 385.94-21.85 386.64-20.65L386.64-20.65 387.74-18.65 389.49-15.35Q390.19-13.95 390.61-12.1 391.04-10.25 391.04-8.35L391.04-8.35Q391.04-5.3 389.64-2.55L389.64-2.55Q388.94-1.15 387.66-0.3 386.39 0.55 384.84 0.55L384.84 0.55 384.84 0.7ZM406.33 4.7L406.18 4.7Q405.68 4.7 405.58 4.25L405.58 4.25 405.58 3.95 406.78 2.45Q407.43 1.55 407.63 0.8L407.63 0.8Q407.68 0.65 407.68 0.35L407.68 0.35Q407.68 0.05 407.63-0.1L407.63-0.1Q406.83-0.1 406.41-0.58 405.98-1.05 405.83-2.05L405.83-2.05Q405.68-2.95 406.36-3.43 407.03-3.9 408.08-3.9L408.08-3.9Q409.63-3.9 409.93-2.25L409.93-2.25Q410.13-1 409.23 1.05 408.33 3.1 406.93 4.4L406.93 4.4Q406.63 4.65 406.33 4.7L406.33 4.7ZM425.58 0.45Q424.83 0.45 423.78-0.3L423.78-0.3Q424.18-4.45 424.43-13.05L424.43-13.05Q424.68-22 424.78-23.8L424.78-23.8 424.78-25Q424.98-29.9 424.98-31.8L424.98-31.8Q424.98-32.5 425.55-32.9 426.13-33.3 426.88-33.3L426.88-33.3Q428.63-33.3 430.63-33L430.63-33Q431.93-32.8 432.7-32.35 433.48-31.9 433.48-31.25L433.48-31.25Q433.48-29.85 430.93-29.85L430.93-29.85Q429.98-30.35 428.33-30.35L428.33-30.35 427.73-30.35 427.73-29.75Q427.73-27.8 427.53-24.8L427.53-24.8Q427.28-22 427.28-19.75L427.28-19.75 427.28-18.4 427.68-18.4 428.18-18.4Q430.63-18.4 430.63-17.1L430.63-17.1Q430.63-16.45 430.1-16.05 429.58-15.65 428.83-15.65L428.83-15.65Q427.63-15.65 426.88-15.9L426.88-15.9 426.88-1.75Q426.88 0.45 425.58 0.45L425.58 0.45ZM442.72 0.95Q441.42 0.95 440.32 0.13 439.22-0.7 438.52-2.1L438.52-2.1Q437.07-5.15 436.72-8.75L436.72-8.75Q436.27-12.15 436.27-15.3L436.27-15.3Q436.27-15.9 436.32-16.3L436.32-16.3 436.32-17.2Q436.32-17.45 436.27-17.45L436.27-17.45 436.27-18.35 436.32-21.85Q436.37-23.45 436.72-26.95L436.72-26.95Q436.97-29.35 437.87-31.6L437.87-31.6Q438.22-32.6 438.77-33.13 439.32-33.65 440.02-33.65L440.02-33.65Q442.02-33.65 443.62-32.93 445.22-32.2 446.32-30.9L446.32-30.9Q447.32-29.65 448.02-27.83 448.72-26 449.02-23.95L449.02-23.95Q449.32-21.85 449.32-19.5L449.32-19.5 449.32-19.1Q449.32-17.55 449.37-16.3L449.37-16.3 449.42-13.45Q449.42 0.95 442.72 0.95L442.72 0.95ZM442.52-1.15Q443.42-1.15 444.17-1.88 444.92-2.6 445.32-3.85L445.32-3.85Q446.27-6.4 446.47-9.35L446.47-9.35Q446.72-11.9 446.72-13.75L446.72-13.75Q446.72-16 446.37-19.65L446.37-19.65Q446.07-23.5 446.07-25.4L446.07-25.4 446.07-26.3Q445.97-28.2 444.8-29.6 443.62-31 441.92-31L441.92-31Q440.22-31 439.67-29.05L439.67-29.05Q439.17-27.5 439.17-25.05L439.17-25.05Q439.17-24.1 439.22-23.45L439.22-23.45 439.22-22.1 439.12-19.8Q439.02-18.75 439.02-17.5L439.02-17.5Q439.02-14.8 439.17-12.15L439.17-12.15Q439.37-8.4 440.17-4.85L440.17-4.85Q440.97-1.15 442.52-1.15L442.52-1.15ZM463.62 0.85Q462.52 0.85 461.62-1.55L461.62-1.55Q460.57-4.15 460.07-6.9L460.07-6.9 459.72-8.6Q458.27-15.75 457.87-16.75L457.87-16.75 457.27-16.75Q457.27-15.3 457.22-14.1L457.22-14.1 457.22-11.35Q457.22-4.65 458.17-0.9L458.17-0.9 457.62 0.45 456.22 0.45 455.57-0.3 455.62-3.65Q455.62-8.15 455.17-17.3L455.17-17.3Q454.77-27.05 454.77-30.95L454.77-30.95Q454.77-33.35 456.42-33.35L456.42-33.35Q459.12-33.35 460.85-31.95 462.57-30.55 462.57-28.05L462.57-28.05 462.57-24.55Q462.57-23.8 462.32-22.83 462.07-21.85 461.77-21.25L461.77-21.25 460.82-19.45 460.02-17.95 460.27-16.75 460.97-13.2Q461.67-9.35 462.32-6.95 462.97-4.55 463.92-2.6L463.92-2.6 464.22-2Q464.72-1 464.72-0.4L464.72-0.4Q464.72 0.1 464.42 0.48 464.12 0.85 463.62 0.85L463.62 0.85ZM457.47-19.2Q458.57-19.75 459.35-22.23 460.12-24.7 460.12-26.8L460.12-26.8Q460.12-28.4 459.72-29.8L459.72-29.8Q459.47-30.6 458.9-31.03 458.32-31.45 457.47-31.45L457.47-31.45 457.37-31.2 457.27-30.75 457.37-24.85Q457.47-22.25 457.47-19.2L457.47-19.2ZM471.92 0.65Q471.27 0.65 470.74 0.2 470.22-0.25 470.17-0.9L470.17-0.9 470.17-2.2 470.17-3.2Q470.12-3.65 470.12-4.25L470.12-4.25Q470.12-5.3 469.97-7.45L469.97-7.45 469.87-10.65Q469.87-13.1 470.02-17.95L470.02-17.95Q470.22-22.3 470.22-25.25L470.22-25.25Q470.22-25.95 470.07-27.35L470.07-27.35Q469.92-28.8 469.92-29.45L469.92-29.45Q469.92-33 472.02-33L472.02-33Q473.67-33 475.84-32.35 478.02-31.7 478.02-30.8L478.02-30.8Q478.02-30.3 477.59-29.88 477.17-29.45 476.57-29.2L476.57-29.2Q474.47-29.95 472.77-30.2L472.77-30.2Q472.82-29.45 472.82-28.05L472.82-28.05Q472.82-26.05 472.77-24.45L472.77-24.45Q472.62-22.05 472.62-20.85L472.62-20.85 472.77-20.05 473.57-20.1Q473.97-20.15 474.57-20.15L474.57-20.15Q476.97-20.15 476.97-18.75L476.97-18.75Q476.97-18.2 476.52-17.82 476.07-17.45 475.37-17.45L475.37-17.45Q474.47-17.45 473.97-17.55L473.97-17.55 472.72-17.55Q472.82-16.25 472.82-13.75L472.82-13.75Q472.82-11.25 472.77-9.25L472.77-9.25Q472.62-6.2 472.62-4.7L472.62-4.7Q472.62-1.9 472.72-1.9L472.72-1.9 474.37-1.95Q475.22-2 476.42-2L476.42-2Q478.32-2 478.32-0.8L478.32-0.8Q478.32-0.1 477.69 0.28 477.07 0.65 476.17 0.65L476.17 0.65 471.92 0.65ZM484.72 0.7Q483.82 0.55 483.19 0.05 482.57-0.45 482.47-1.25L482.47-1.25 483.02-2.1Q483.32-2.1 483.97-1.9L483.97-1.9Q484.72-1.75 485.12-1.75L485.12-1.75Q486.02-1.75 486.74-2.55 487.47-3.35 487.82-4.65L487.82-4.65Q488.47-7.05 488.47-8.95L488.47-8.95Q488.47-12.25 486.37-15.9L486.37-15.9 485.82-16.85Q484.87-18.5 484.22-19.8 483.57-21.1 483.12-22.6L483.12-22.6Q482.52-24.55 482.52-26.5L482.52-26.5Q482.52-28.7 483.52-31.1L483.52-31.1Q484.02-32.25 484.94-32.98 485.87-33.7 487.02-33.7L487.02-33.7Q487.92-33.7 488.69-33.13 489.47-32.55 489.47-31.75L489.47-31.75Q489.47-31.3 489.12-31.05 488.77-30.8 488.27-30.8L488.27-30.8Q487.72-30.8 487.22-31.1L487.22-31.1Q486.12-31.05 485.47-29.15L485.47-29.15Q484.92-27.4 484.92-26.25L484.92-26.25Q484.92-24.8 485.37-23.33 485.82-21.85 486.52-20.65L486.52-20.65 487.62-18.65 489.37-15.35Q490.07-13.95 490.49-12.1 490.92-10.25 490.92-8.35L490.92-8.35Q490.92-5.3 489.52-2.55L489.52-2.55Q488.82-1.15 487.54-0.3 486.27 0.55 484.72 0.55L484.72 0.55 484.72 0.7ZM499.86-0.15L498.96-0.8 498.91-2.75Q498.86-3.6 498.86-4.65L498.86-4.65 498.91-6.35Q498.76-6.9 498.16-17.3 497.56-27.7 497.46-30.65L497.46-30.65Q494.56-30.75 493.76-31.25L493.76-31.25Q493.21-31.65 493.21-32.15L493.21-32.15Q493.21-32.55 493.74-32.88 494.26-33.2 494.81-33.2L494.81-33.2Q496.21-33.2 498.21-33L498.21-33Q500.11-32.75 501.61-32.75L501.61-32.75 502.01-32.75 502.41-32.75Q503.96-32.75 503.96-31.55L503.96-31.55Q503.96-30.95 503.46-30.58 502.96-30.2 502.31-30.2L502.31-30.2Q501.86-30.2 501.01-30.35L501.01-30.35 500.01-30.55 499.96-30.3 499.91-30.05Q499.91-25.6 500.76-15.85L500.76-15.85Q501.56-6.7 501.56-1.65L501.56-1.65Q501.56-1.05 501.04-0.6 500.51-0.15 499.86-0.15L499.86-0.15Z" opacity="1" transform="matrix(1,0,0,1,0,0)" fill="#75db6f" class="slogan-text-1" data-fill-palette-color="secondary" id="text-1"></path></svg></g></svg></g></svg></g></svg></g><g><svg viewBox="0 0 166.53049236839183 235.86660815002702" height="235.86660815002702" width="166.53049236839183"><g><svg xmlns="http://www.w3.org/2000/svg" xmlns:xlink="http://www.w3.org/1999/xlink" version="1.1" x="0" y="0" viewBox="23.099999999999998 11.9 53.80000000000001 76.19999999999999" enable-background="new 0 0 100 100" xml:space="preserve" height="235.86660815002702" width="166.53049236839183" class="icon-icon-0" data-fill-palette-color="accent" id="icon-0"><g fill="#50a060" data-fill-palette-color="accent"><g fill="#50a060" data-fill-palette-color="accent"><path d="M50 88.1l-1.2-1.4c-1-1.2-25.7-29.1-25.7-47.8C23.1 24 35.2 11.9 50 11.9S76.9 24 76.9 38.9c0 18.9-24.6 46.6-25.7 47.8L50 88.1zM50 15.3c-13 0-23.6 10.6-23.6 23.6C26.4 54.1 45 77.1 50 83c5-5.9 23.6-28.9 23.6-44.2C73.6 25.8 63 15.3 50 15.3z" fill="#50a060" data-fill-palette-color="accent"></path></g><g fill="#50a060" data-fill-palette-color="accent"><path d="M50 51c-6.7 0-12.1-5.4-12.1-12.1S43.3 26.8 50 26.8s12.1 5.4 12.1 12.1S56.7 51 50 51zM50 30.1c-4.8 0-8.8 3.9-8.8 8.8s3.9 8.8 8.8 8.8 8.8-3.9 8.8-8.8S54.8 30.1 50 30.1z" fill="#50a060" data-fill-palette-color="accent"></path></g></g></svg></g></svg></g></svg></g><defs></defs></svg><rect width="395.52" height="155.29691244294918" fill="none" stroke="none" visibility="hidden"></rect></g></svg></g></svg>